<?xml version="1.0" encoding="UTF-8"?> <svg xmlns="http://www.w3.org/2000/svg" xmlns:xlink="http://www.w3.org/1999/xlink" width="142px" height="20px" viewBox="0 0 142 20" version="1.1"><!-- Generator: Sketch 63.1 (92452) - https://sketch.com --><title>Group 3</title><desc>Created with Sketch.</desc><g id="Symbols" stroke="none" stroke-width="1" fill="none" fill-rule="evenodd"><g id="Top-Menu-2" transform="translate(0.000000, -6.000000)"><g id="Group-10"><g id="Group-3" transform="translate(0.000000, 6.000000)"><path d="M32.3153098,16.5815526 L32.3153098,11.7920789 L35.5076309,11.7920789 C36.0689181,11.7920789 36.5746613,11.6990503 37.0248604,11.512993 C37.4750596,11.3269358 37.8580212,11.0628545 38.1737452,10.7207492 C38.4894693,10.378644 38.7291857,9.9705184 38.8928945,9.49637251 C39.0566033,9.02222662 39.1384577,8.49106318 39.1384577,7.90288221 C39.1384577,7.32670492 39.0566033,6.79854241 38.8928945,6.31839467 C38.7291857,5.83824693 38.4894693,5.42712043 38.1737452,5.08501517 C37.8580212,4.74290991 37.4750596,4.47882865 37.0248604,4.2927714 C36.5746613,4.10671415 36.0689181,4.01368553 35.5076309,4.01368553 L35.5076309,4.01368553 L30,4.01368553 L30,16.5815526 L32.3153098,16.5815526 Z M35.2971482,9.7394473 L32.3153098,9.7394473 L32.3153098,6.08432265 L35.2971482,6.08432265 C35.7415006,6.08432265 36.0923051,6.20435958 36.3495617,6.44443345 C36.6068184,6.68450732 36.7354467,7.03261443 36.7354467,7.48875478 L36.7354467,7.48875478 L36.7354467,8.31700963 C36.7354467,8.77314998 36.6068184,9.12425801 36.3495617,9.37033373 C36.0923051,9.61640944 35.7415006,9.7394473 35.2971482,9.7394473 L35.2971482,9.7394473 Z M46.6151204,16.797619 C47.4219707,16.797619 48.1528135,16.6595766 48.8076486,16.3834916 C49.4624837,16.1074067 50.0237709,15.6932793 50.4915103,15.1411094 C50.9592496,14.5889395 51.3188243,13.9107308 51.5702342,13.1064833 C51.8216441,12.3022359 51.947349,11.3659478 51.947349,10.297619 C51.947349,9.24129402 51.8216441,8.30800686 51.5702342,7.49775755 C51.3188243,6.68750824 50.9592496,6.00629864 50.4915103,5.45412874 C50.0237709,4.90195884 49.4624837,4.48783142 48.8076486,4.21174647 C48.1528135,3.93566152 47.4219707,3.79761905 46.6151204,3.79761905 C45.80827,3.79761905 45.0774272,3.93566152 44.4225921,4.21174647 C43.767757,4.48783142 43.2093932,4.90195884 42.7475006,5.45412874 C42.285608,6.00629864 41.9260333,6.68750824 41.6687767,7.49775755 C41.41152,8.30800686 41.2828917,9.24129402 41.2828917,10.297619 C41.2828917,11.3659478 41.41152,12.3022359 41.6687767,13.1064833 C41.9260333,13.9107308 42.285608,14.5889395 42.7475006,15.1411094 C43.2093932,15.6932793 43.767757,16.1074067 44.4225921,16.3834916 C45.0774272,16.6595766 45.80827,16.797619 46.6151204,16.797619 Z M46.6151204,14.6909708 C45.7381091,14.6909708 45.0394234,14.3908785 44.5190634,13.7906938 C43.9987033,13.1905092 43.7385233,12.3502506 43.7385233,11.2699182 L43.7385233,11.2699182 L43.7385233,9.32531988 C43.7385233,8.24498747 43.9987033,7.40472893 44.5190634,6.80454426 C45.0394234,6.20435958 45.7381091,5.90426725 46.6151204,5.90426725 C47.4921317,5.90426725 48.1908173,6.20435958 48.7111773,6.80454426 C49.2315374,7.40472893 49.4917174,8.24498747 49.4917174,9.32531988 L49.4917174,9.32531988 L49.4917174,11.2699182 C49.4917174,12.3502506 49.2315374,13.1905092 48.7111773,13.7906938 C48.1908173,14.3908785 47.4921317,14.6909708 46.6151204,14.6909708 Z M59.915138,16.5815526 L59.915138,14.6729653 L58.283897,14.6729653 L58.283897,5.92227279 L59.915138,5.92227279 L59.915138,4.01368553 L54.3548865,4.01368553 L54.3548865,5.92227279 L55.9685872,5.92227279 L55.9685872,14.6729653 L54.3548865,14.6729653 L54.3548865,16.5815526 L59.915138,16.5815526 Z M65.0414105,16.5815526 L65.0414105,7.52476586 L65.0940312,7.52476586 L66.3569274,10.1355692 L70.0403749,16.5815526 L72.5837076,16.5815526 L72.5837076,4.01368553 L70.3911794,4.01368553 L70.3911794,13.0704722 L70.3385587,13.0704722 L69.0756624,10.4596689 L65.392215,4.01368553 L62.8488823,4.01368553 L62.8488823,16.5815526 L65.0414105,16.5815526 Z M80.8321402,16.5815526 L80.8321402,6.12033373 L84.305105,6.12033373 L84.305105,4.01368553 L75.0438657,4.01368553 L75.0438657,6.12033373 L78.5168304,6.12033373 L78.5168304,16.5815526 L80.8321402,16.5815526 Z M90.3610094,16.797619 C91.0976989,16.797619 91.7496106,16.7015895 92.3167446,16.5095304 C92.8838785,16.3174713 93.3633114,16.0443873 93.7550431,15.6902783 C94.1467748,15.3361694 94.4449586,14.9160401 94.6495946,14.4298905 C94.8542306,13.9437409 94.9565485,13.4005738 94.9565485,12.8003891 C94.9565485,11.7560678 94.6612881,10.9428176 94.0707671,10.3606384 C93.4802462,9.77845931 92.5652311,9.37333465 91.3257218,9.14526448 L91.3257218,9.14526448 L90.1856071,8.92919799 C89.5892394,8.82116475 89.1565805,8.65311305 88.8876304,8.42504287 C88.6186803,8.19697269 88.4842052,7.84286374 88.4842052,7.362716 C88.4842052,6.89457196 88.6508374,6.53146023 88.9841016,6.27338082 C89.3173659,6.01530141 89.8172624,5.88626171 90.483791,5.88626171 C91.138626,5.88626171 91.682373,6.00629864 92.115032,6.24637251 C92.5476909,6.48644638 92.9160356,6.79854241 93.2200662,7.1826606 L93.2200662,7.1826606 L94.7986865,5.65218968 C94.3075602,5.04000132 93.7170392,4.57785912 93.0271237,4.26576309 C92.3372081,3.95366706 91.5303578,3.79761905 90.6065725,3.79761905 C89.916657,3.79761905 89.2998257,3.88464583 88.7560787,4.05869938 C88.2123317,4.23275293 87.7475157,4.48182957 87.3616308,4.8059293 C86.9757458,5.13002902 86.6804853,5.52014906 86.4758494,5.97628941 C86.2712134,6.43242976 86.1688954,6.94258673 86.1688954,7.50676032 C86.1688954,9.54738821 87.3908645,10.7657631 89.8348026,11.161885 L89.8348026,11.161885 L90.9924575,11.3419404 C91.6355991,11.4619773 92.0741048,11.6540364 92.3079744,11.9181177 C92.5418441,12.1821989 92.658779,12.5243042 92.658779,12.9444335 C92.658779,13.4845997 92.47753,13.9137317 92.115032,14.2318296 C91.752534,14.5499275 91.2146337,14.7089764 90.5013312,14.7089764 C89.869883,14.7089764 89.293979,14.5769358 88.7736189,14.3128545 C88.2532589,14.0487732 87.7825962,13.6646551 87.3616308,13.1604999 L87.3616308,13.1604999 L85.8005507,14.7089764 C86.3267574,15.3331684 86.9552822,15.8373236 87.6861249,16.2214418 C88.4169677,16.60556 89.3085958,16.797619 90.3610094,16.797619 Z M102.591073,16.797619 C103.690261,16.797619 104.608199,16.5365387 105.344889,16.0143781 C106.081578,15.4922174 106.672099,14.762993 107.116452,13.8267049 L107.116452,13.8267049 L105.239647,12.6923559 C105.040858,13.2565295 104.722211,13.7306754 104.283705,14.1147936 C103.845199,14.4989118 103.280989,14.6909708 102.591073,14.6909708 C101.725755,14.6909708 101.038763,14.3998813 100.530097,13.8177022 C100.02143,13.235523 99.7670969,12.3982654 99.7670969,11.3059293 L99.7670969,11.3059293 L99.7670969,9.32531988 C99.7670969,8.24498747 100.02143,7.40472893 100.530097,6.80454426 C101.038763,6.20435958 101.725755,5.90426725 102.591073,5.90426725 C103.280989,5.90426725 103.824736,6.07531988 104.222314,6.41742514 C104.619893,6.7595304 104.906383,7.21266983 105.081785,7.77684342 L105.081785,7.77684342 L107.063831,6.69651101 C106.631172,5.72421185 106.052345,4.99798839 105.327349,4.51784065 C104.602353,4.03769292 103.690261,3.79761905 102.591073,3.79761905 C101.784223,3.79761905 101.056304,3.94166337 100.407315,4.22975201 C99.7583268,4.51784065 99.2028863,4.94097085 98.7409937,5.49914259 C98.2791011,6.05731434 97.9253732,6.74752671 97.67981,7.56977971 C97.4342469,8.39203271 97.3114653,9.33132173 97.3114653,10.3876467 C97.3114653,11.4439718 97.4342469,12.3712571 97.67981,13.1695027 C97.9253732,13.9677483 98.2791011,14.6369542 98.7409937,15.1771204 C99.2028863,15.7172866 99.7583268,16.1224113 100.407315,16.3924944 C101.056304,16.6625775 101.784223,16.797619 102.591073,16.797619 Z M117.732815,16.5815526 L117.732815,14.4749044 L111.979621,14.4749044 L111.979621,11.2699182 L117.066286,11.2699182 L117.066286,9.16327002 L111.979621,9.16327002 L111.979621,6.12033373 L117.732815,6.12033373 L117.732815,4.01368553 L109.664311,4.01368553 L109.664311,16.5815526 L117.732815,16.5815526 Z M122.946788,16.5815526 L122.946788,7.52476586 L122.999409,7.52476586 L124.262305,10.1355692 L127.945753,16.5815526 L130.489085,16.5815526 L130.489085,4.01368553 L128.296557,4.01368553 L128.296557,13.0704722 L128.243936,13.0704722 L126.98104,10.4596689 L123.297593,4.01368553 L120.75426,4.01368553 L120.75426,16.5815526 L122.946788,16.5815526 Z M142,16.5815526 L142,14.4749044 L136.246806,14.4749044 L136.246806,11.2699182 L141.333471,11.2699182 L141.333471,9.16327002 L136.246806,9.16327002 L136.246806,6.12033373 L142,6.12033373 L142,4.01368553 L133.931496,4.01368553 L133.931496,16.5815526 L142,16.5815526 Z" id="POINTSCENE" fill="#082344" fill-rule="nonzero"></path><g id="Group" transform="translate(0.000000, 0.797619)" fill="#FF762E"><path d="M17.2727273,0 C18.2266737,0 19,0.773326341 19,1.72727273 L19,17.2727273 C19,18.2266737 18.2266737,19 17.2727273,19 L1.72727273,19 C0.773326341,19 0,18.2266737 0,17.2727273 L0,1.72727273 C0,0.773326341 0.773326341,0 1.72727273,0 L17.2727273,0 Z M16.1212121,2.87858148 L2.87878788,2.87858148 L2.87878788,16.1210057 L16.1212121,16.1210057 L16.1212121,2.87858148 Z" id="Rectangle" fill-rule="nonzero"></path><rect id="Rectangle-Copy-4" x="6.90909091" y="6.90909091" width="5.18181818" height="5.18181818" rx="1"></rect></g></g></g></g></g></svg> 